<svg width="19.000000" height="16.000000" viewBox="0 0 19 16" fill="none" xmlns="http://www.w3.org/2000/svg" xmlns:xlink="http://www.w3.org/1999/xlink">
	<desc>
			Created with Pixso.
	</desc>
	<path id="path" d="M16.8418 2.94043L14.3783 2.94043L14.3783 2.04468C14.3783 0.915771 13.4094 0 12.2201 0L6.7821 0C5.59277 0 4.6239 0.917969 4.6239 2.04468L4.6239 2.94043L2.1582 2.94043C0.968872 2.94043 0 3.8584 0 4.98511L0 13.9553C0 15.0842 0.968872 16 2.1582 16L16.8418 16C18.0311 16 19 15.082 19 13.9553L19 9.62085C17.7004 9.62085 16.4071 9.625 15.1055 9.625L15.1055 10.5107C15.1055 11.0049 14.6793 11.4084 14.1577 11.4084C13.6362 11.4084 13.2101 11.0049 13.2101 10.5107L13.2101 9.625L5.78992 9.625L5.78992 10.5107C5.78992 11.0049 5.36377 11.4084 4.84216 11.4084C4.32068 11.4084 3.89453 11.0049 3.89453 10.5107L3.89453 9.625C2.5929 9.625 1.29956 9.6228 0 9.6228L0 8.41577C1.29956 8.41577 2.59497 8.40771 3.89453 8.40771C3.90308 7.91968 4.32495 7.52197 4.84216 7.52197C5.3595 7.52197 5.78137 7.91968 5.78992 8.40771L13.2101 8.40771C13.2186 7.91968 13.6405 7.52197 14.1578 7.52197C14.675 7.52197 15.0969 7.91968 15.1055 8.40771C16.405 8.40771 17.7025 8.41382 19 8.41382L19 4.98511C19 3.85645 18.0332 2.94043 16.8418 2.94043ZM5.90649 2.04468C5.90649 1.58887 6.29871 1.21509 6.7821 1.21509L12.2201 1.21509C12.7034 1.21509 13.0956 1.58667 13.0956 2.04468L13.0956 2.94043L5.90857 2.94043C5.90649 2.94043 5.90649 2.04468 5.90649 2.04468Z" fill-rule="evenodd" fill="#000000"/>
	<defs/>
</svg>
