<svg width="13.746338" height="11.841553" viewBox="0 0 13.7463 11.8416" fill="none" xmlns="http://www.w3.org/2000/svg" xmlns:xlink="http://www.w3.org/1999/xlink">
	<desc>
			Created with Pixso.
	</desc>
	<path id="path" d="M12.0627 10.8892C12.0627 11.0647 11.9207 11.2065 11.7454 11.2065L0.952393 11.2065C0.7771 11.2065 0.63501 11.0647 0.63501 10.8892L0.63501 3.27051C0.63501 3.09546 0.7771 2.95312 0.952393 2.95312L4.12671 2.95312L4.12671 2.31812L0.63501 2.31812C0.28418 2.31812 0 2.60254 0 2.95312L0 11.2065C0 11.5574 0.28418 11.8416 0.63501 11.8416L12.0627 11.8416C12.4133 11.8416 12.6978 11.5574 12.6978 11.2065L12.6978 8.34961L12.0627 8.34961L12.0627 10.8892ZM13.7463 2.91797L10.8281 0L10.3792 0.448975L12.5662 2.63574L10.1582 2.63574C6.43457 2.85132 3.45801 5.58276 3.20068 8.98462L3.83594 8.98462C4.09277 5.93213 6.78638 3.50317 10.1582 3.2915L12.5662 3.27051L10.3792 5.45752L10.8281 5.90649L13.7463 2.91797Z" fill-rule="evenodd" fill="currentColor"/>
	<defs/>
</svg>
