<svg xmlns="http://www.w3.org/2000/svg" xmlns:xlink="http://www.w3.org/1999/xlink" data-v-decfdd8a="" version="1.0" preserveAspectRatio="xMidYMid meet" color-interpolation-filters="sRGB">   <g data-v-decfdd8a="" fill="#333" class="icon-text-wrapper icon-svg-group iconsvg" transform="translate(0,0)"><g class="iconsvg-imagesvg" transform="translate(0,5)"><g> <svg x="0" y="0" width="59.99999999999999" height="59.34011325551832" filtersec="colorsb7911031905" class="image-svg-svg primary" style="overflow: visible;"><svg xmlns="http://www.w3.org/2000/svg" viewBox="0 0 86.52999877929688 100"><path fill="#2084f7" d="M20.82 87.16L0 75.28V25.04l20.82 12.33v49.79z"/><path fill="#22cfee" d="M18.95 14.03L0 25.04l20.82 12.33 18.95-10.83-20.82-12.51z"/><path fill="#23b0f1" d="M86.53 50.55l-.11 24.39L43.03 100l.14-24.56 43.36-24.89z"/><path fill="#2084f7" d="M24.1 88.87L43.03 100l.14-24.56-19.02-10.58-.05 24.01z"/><path fill="#22cfee" d="M22.41 12.17L43.06 0l43.28 25.04L65.92 37.2 22.41 12.17z"/><path fill="#23b0f1" d="M86.37 46.98l-.03-21.94L65.92 37.2l.02 21.81 20.43-12.03z"/><path fill="#22cfee" d="M60.79 60.12L43.27 70.23 25.75 60.12V39.88l17.52-10.11 17.52 10.11v20.24z"/></svg></svg> <!----></g></g> <g transform="translate(67,15.003643035888672)"><g data-gra="path-name" fill-rule="" class="tp-name iconsvg-namesvg" transform="translate(0,0)"><g transform="scale(1)"><g><path d="M16.17 4.59L16.17-7.08 33.03-7.08 33.03 2.34Q33.03 3.27 32.37 3.93 31.71 4.59 30.75 4.59L30.75 4.59 16.17 4.59ZM1.5 4.68L1.5-20.13 4.62-20.13 5.22-22.68 10.02-22.68 9.42-20.13 13.8-20.13 13.8 2.4Q13.8 3.36 13.14 4.02 12.48 4.68 11.52 4.68L11.52 4.68 1.5 4.68ZM6.18 1.71L9.12 1.71 9.12-7.05 6.18-7.05 6.18 1.71ZM6.18-10.02L9.12-10.02 9.12-17.16 6.18-17.16 6.18-10.02ZM14.61-9.51L14.61-12.48 22.35-12.48 22.35-16.02 14.79-16.02 15.99-21.39 20.52-21.39 19.98-18.96 22.35-18.96 22.35-22.68 27.06-22.68 27.06-18.96 33.39-18.96 32.31-16.02 27.06-16.02 27.06-12.48 34.71-12.48 33.63-9.51 14.61-9.51ZM20.94 1.62L28.29 1.62 28.29-4.14 20.94-4.14 20.94 1.62ZM57.24 4.68L56.16 1.71 63.6 1.71 63.6-4.17 45.39-4.17 45.39-2.76 43.74 4.68 39.09 4.68 40.74-2.76 40.74-22.14 68.28-22.14 68.28 2.4Q68.28 3.36 67.62 4.02 66.96 4.68 66 4.68L66 4.68 57.24 4.68ZM45.39-7.14L63.6-7.14 63.6-11.67 45.39-11.67 45.39-7.14ZM45.39-14.61L63.6-14.61 63.6-19.17 45.39-19.17 45.39-14.61Z" transform="translate(-1.5, 22.68000030517578)"/></g> <!----> <!----> <!----> <!----> <!----> <!----> <!----></g></g> <g data-gra="path-slogan" fill-rule="" class="tp-slogan iconsvg-slogansvg" fill="#333" transform="translate(0.6319999694824219,34.36000061035156)"><!----> <!----> <g mask="url(#a7f1fe21-4bce-4847-a407-ddcb5599a07c)"><g><rect data-gra="graph-name-bg" stroke-width="2" class="i-icon-bg" x="0" y="0" width="97.51599884033203" height="9.97599983215332" fill-opacity="1"/> <!----> <!----> </g> <g transform="translate(5,2)"><g transform="scale(1, 1)" fill="#fff"><g transform="scale(0.7199999999999998)"><path d="M2.94-7.23L0.18-7.23L0.18-8.17L6.78-8.17L6.78-7.23L4.02-7.23L4.02 0L2.94 0L2.94-7.23ZM8.88-4.82L13.16-4.82L13.16-8.17L14.28-8.17L14.28 0L13.16 0L13.16-3.79L8.88-3.79L8.88 0L7.76 0L7.76-8.17L8.88-8.17L8.88-4.82ZM17.22-0.98L22.13-0.98L22.13 0L16.11 0L16.11-8.17L22.04-8.17L22.04-7.23L17.22-7.23L17.22-4.69L21.69-4.69L21.69-3.70L17.22-3.70L17.22-0.98ZM29.81-7.27L27.84-7.27L27.84-4.73L29.81-4.73Q31.55-4.69 31.50-6.07L31.50-6.07Q31.50-7.27 29.81-7.27L29.81-7.27ZM30.25 0L26.73 0L26.73-8.17L30.34-8.17Q32.53-8.08 32.62-6.11L32.62-6.11Q32.62-4.91 31.55-4.42L31.55-4.42Q33.06-3.88 33.06-2.41L33.06-2.41Q32.93-0.09 30.25 0L30.25 0ZM29.99-3.79L27.84-3.79L27.84-0.94L30.21-0.94Q31.90-0.98 31.95-2.41L31.95-2.41Q31.95-3.79 29.99-3.79L29.99-3.79ZM35.56-0.98L40.47-0.98L40.47 0L34.45 0L34.45-8.17L40.38-8.17L40.38-7.23L35.56-7.23L35.56-4.69L40.02-4.69L40.02-3.70L35.56-3.70L35.56-0.98ZM47.30 0L46.49-2.36L43.19-2.36L42.35 0L41.23 0L44.31-8.17L45.56-8.17L48.50 0L47.30 0ZM44.84-6.96L43.55-3.35L46.09-3.35L44.89-6.96L44.84-6.96ZM54.88-3.03L54.88-8.17L56.00-8.17L56.00-2.90Q55.87 0.04 52.65 0.13L52.65 0.13Q49.66 0.04 49.53-2.72L49.53-2.72L49.53-8.17L50.64-8.17L50.64-3.03Q50.69-0.80 52.70-0.76L52.70-0.76Q54.88-0.80 54.88-3.03L54.88-3.03ZM59.79-7.23L57.03-7.23L57.03-8.17L63.63-8.17L63.63-7.23L60.86-7.23L60.86 0L59.79 0L59.79-7.23ZM64.79-8.17L65.90-8.17L65.90 0L64.79 0L64.79-8.17ZM73.04-3.70L69.03-3.70L69.03 0L67.91 0L67.91-8.17L73.58-8.17L73.58-7.23L69.03-7.23L69.03-4.69L73.04-4.69L73.04-3.70ZM80.09-3.03L80.09-8.17L81.21-8.17L81.21-2.90Q81.08 0.04 77.86 0.13L77.86 0.13Q74.87 0.04 74.74-2.72L74.74-2.72L74.74-8.17L75.86-8.17L75.86-3.03Q75.90-0.80 77.91-0.76L77.91-0.76Q80.09-0.80 80.09-3.03L80.09-3.03ZM82.91-8.17L84.02-8.17L84.02-0.98L88.17-0.98L88.17 0L82.91 0L82.91-8.17ZM95.76 0L92.45 0L92.45-8.17L95.80-8.17Q99.10-7.99 99.24-4.19L99.24-4.19Q99.06-0.09 95.76 0L95.76 0ZM95.62-7.27L93.57-7.27L93.57-0.94L95.71-0.94Q98.03-1.07 98.12-4.11L98.12-4.11Q98.08-7.18 95.62-7.27L95.62-7.27ZM106.02 0L105.22-2.36L101.91-2.36L101.07 0L99.95 0L103.03-8.17L104.28-8.17L107.22 0L106.02 0ZM103.56-6.96L102.27-3.35L104.81-3.35L103.61-6.96L103.56-6.96ZM110.30-7.23L107.54-7.23L107.54-8.17L114.14-8.17L114.14-7.23L111.37-7.23L111.37 0L110.30 0L110.30-7.23ZM120.52 0L119.72-2.36L116.42-2.36L115.57 0L114.45 0L117.53-8.17L118.78-8.17L121.73 0L120.52 0ZM118.07-6.96L116.77-3.35L119.32-3.35L118.11-6.96L118.07-6.96Z" transform="translate(-0.17848289538919188, 8.165592464055528)"/></g></g></g></g></g></g></g></svg>