<svg width="36.000000" height="28.000000" viewBox="0 0 36 28" fill="none" xmlns="http://www.w3.org/2000/svg" xmlns:xlink="http://www.w3.org/1999/xlink">
	<desc>
			Created with Pixso.
	</desc>
	<path id="path" d="M16.6643 17.7148C16.6168 17.9182 16.5573 18.0752 16.486 18.186C16.4146 18.2971 16.2481 18.4172 15.9865 18.5466C15.3682 18.8423 14.7022 19.0825 13.9887 19.2673C13.2752 19.4521 12.5915 19.6555 11.9374 19.8772C11.2834 20.0991 10.7126 20.3901 10.2251 20.7505C9.73752 21.1108 9.43427 21.6238 9.31537 22.2891C9.26779 22.4924 9.23807 22.6912 9.22617 22.8853C9.21429 23.0791 9.19644 23.2595 9.17267 23.4258C9.1489 23.4534 9.05374 23.5828 9.02997 23.6199C8.10242 23.5645 7.16299 23.4998 6.21167 23.4258C5.26035 23.3518 4.38632 23.2686 3.58957 23.1763C2.79285 23.0837 2.12097 22.9915 1.57397 22.8989C1.02695 22.8066 0.682098 22.7141 0.539398 22.6218C0.325348 22.4924 0.164825 22.1042 0.0578003 21.4575C-0.0492249 20.8105 -0.00759888 19.9697 0.182648 18.9346C0.301575 18.3618 0.604797 17.9229 1.09235 17.6179C1.57993 17.313 2.15665 17.0725 2.82257 16.897C3.48849 16.7214 4.17227 16.5598 4.87387 16.4119C5.57547 16.2639 6.19977 16.0608 6.7468 15.802C7.1749 15.5801 7.50189 15.377 7.72784 15.1921C7.9538 15.0073 8.11432 14.8179 8.20944 14.6238C8.3046 14.4297 8.35214 14.231 8.35214 14.0278C8.35214 13.8245 8.34027 13.6025 8.31647 13.3623C8.26892 12.9927 8.10837 12.7017 7.83487 12.489C7.56137 12.2766 7.25812 12.0593 6.92517 11.8376C6.73489 11.7451 6.57437 11.5974 6.44354 11.394C6.31274 11.1907 6.19977 10.9875 6.10464 10.7842C6.00952 10.5623 5.91437 10.313 5.81924 10.0356C5.67654 9.99878 5.53384 9.94312 5.39114 9.86938C5.27225 9.79541 5.14737 9.68457 5.01657 9.53662C4.88577 9.38867 4.76089 9.18555 4.642 8.92676C4.52307 8.66797 4.47549 8.4231 4.4993 8.19214C4.52307 7.96094 4.58252 7.76245 4.67767 7.59595C4.7728 7.39282 4.90359 7.22632 5.07007 7.09692C5.0463 6.50562 5.08197 5.90503 5.17709 5.29517C5.27225 4.79614 5.42682 4.26001 5.64087 3.68701C5.85492 3.11426 6.17599 2.59668 6.6041 2.13477C6.98462 1.69116 7.41272 1.33081 7.88837 1.05347C8.36404 0.776123 8.84564 0.559082 9.33319 0.4021C9.82077 0.244873 10.3142 0.138672 10.8137 0.083252C11.3131 0.027832 11.8007 0 12.2764 0C13.4655 0 14.5358 0.194092 15.4871 0.582275C16.4384 0.970215 17.1519 1.38623 17.6276 1.82959C17.9367 2.1438 18.1329 2.43506 18.2162 2.70288C18.2994 2.97095 18.4124 3.28052 18.5551 3.63159C18.1032 3.83496 17.6216 4.13525 17.1103 4.53271C16.5989 4.92993 16.153 5.33203 15.7725 5.73853C15.2968 6.2561 14.9401 6.8291 14.7022 7.45752C14.4644 8.08569 14.286 8.66797 14.1671 9.20386C14.0482 9.85083 13.9887 10.4978 13.9887 11.1445C13.7985 11.3108 13.6558 11.4956 13.5606 11.699C13.4655 11.8838 13.4061 12.1011 13.3823 12.3506C13.3585 12.6001 13.4061 12.8726 13.525 13.1682C13.6439 13.4824 13.7747 13.7227 13.9174 13.8892C14.0601 14.0554 14.1909 14.1848 14.3098 14.2773C14.4525 14.3882 14.5952 14.4622 14.7379 14.499C14.833 14.7947 14.9282 15.072 15.0233 15.3308C15.1184 15.5525 15.2314 15.7788 15.3622 16.01C15.493 16.241 15.6536 16.4119 15.8438 16.5227C16.0103 16.6335 16.1411 16.7261 16.2362 16.8C16.3314 16.874 16.4087 16.9431 16.4681 17.0078C16.5276 17.0725 16.5633 17.1604 16.5752 17.2712C16.587 17.3821 16.6168 17.53 16.6643 17.7148ZM35.6789 22.8159C35.774 23.0745 35.8513 23.3887 35.9108 23.7583C35.9703 24.1279 36 24.5022 36 24.8811C36 25.26 35.9643 25.6157 35.893 25.9485C35.8216 26.2812 35.7146 26.5308 35.5719 26.697C35.4768 26.8079 35.1973 26.9187 34.7336 27.0298C34.2698 27.1406 33.6931 27.2422 33.0033 27.3347C32.3136 27.427 31.5526 27.5149 30.7202 27.5979C29.8878 27.6812 29.0494 27.7505 28.2051 27.8059C27.3608 27.8613 26.5462 27.9075 25.7614 27.9446C24.9765 27.9814 24.2868 28 23.6922 28C23.0977 28 22.4139 27.9814 21.641 27.9446C20.868 27.9075 20.0653 27.8613 19.2329 27.8059C18.4005 27.7505 17.58 27.6904 16.7714 27.6257C15.9627 27.561 15.2195 27.4871 14.5417 27.4041C13.8639 27.3208 13.2931 27.2375 12.8293 27.1545C12.3655 27.0713 12.0742 26.9927 11.9553 26.9187C11.765 26.7896 11.6104 26.4014 11.4915 25.7544C11.3726 25.1077 11.4083 24.2759 11.5985 23.2595C11.7175 22.668 12.0207 22.2244 12.5082 21.9287C12.9958 21.6331 13.5725 21.3928 14.2385 21.208C14.9044 21.0232 15.5882 20.8613 16.2898 20.7227C16.9914 20.5842 17.6157 20.3762 18.1627 20.0991C18.5908 19.8772 18.9178 19.6738 19.1437 19.489C19.3697 19.3042 19.5361 19.1194 19.6432 18.9346C19.7502 18.7498 19.8037 18.5557 19.8037 18.3525C19.8037 18.1492 19.7918 17.9182 19.768 17.6594C19.7205 17.2898 19.554 16.9988 19.2686 16.7861C18.9832 16.5735 18.674 16.3657 18.341 16.1624C18.1746 16.0515 18.0259 15.8943 17.8951 15.6912C17.7643 15.4878 17.6513 15.2844 17.5562 15.0813C17.4611 14.8594 17.3659 14.6099 17.2708 14.3328C17.1281 14.2957 16.9854 14.2402 16.8427 14.1663C16.7238 14.0925 16.5989 13.9814 16.4681 13.8337C16.3373 13.6858 16.2125 13.4824 16.0935 13.2239C15.9746 12.9651 15.9271 12.7202 15.9508 12.489C15.9746 12.2581 16.0341 12.0686 16.1292 11.9209C16.2244 11.7361 16.3552 11.5696 16.5216 11.4219C16.4979 10.8303 16.5335 10.2297 16.6287 9.61987C16.7238 9.10229 16.8724 8.56177 17.0746 7.99805C17.2768 7.43433 17.5919 6.91211 18.02 6.43164C18.4005 5.98804 18.8286 5.62769 19.3043 5.35059C19.7799 5.07324 20.2675 4.8562 20.7669 4.69897C21.2664 4.54199 21.7658 4.43555 22.2653 4.38013C22.7647 4.32471 23.2404 4.29712 23.6922 4.29712C24.9052 4.29712 25.9873 4.49121 26.9386 4.87915C27.89 5.26733 28.5916 5.68311 29.0434 6.12671C29.5667 6.62573 29.9532 7.18481 30.2029 7.80396C30.4526 8.4231 30.6369 9.00073 30.7558 9.53662C30.8747 10.165 30.9223 10.7935 30.8985 11.4219C31.0174 11.4956 31.1245 11.5974 31.2196 11.7268C31.291 11.8376 31.3564 11.981 31.4158 12.1565C31.4753 12.332 31.4812 12.5491 31.4337 12.8079C31.3861 13.1406 31.291 13.4087 31.1483 13.6118C31.0056 13.8152 30.8629 13.9722 30.7202 14.0833C30.5536 14.2126 30.3634 14.2957 30.1494 14.3328C30.0542 14.6099 29.9591 14.8594 29.864 15.0813C29.7688 15.2844 29.6499 15.4878 29.5072 15.6912C29.3645 15.8943 29.2099 16.0422 29.0434 16.1348C28.8532 16.2639 28.6808 16.375 28.5262 16.4673C28.3716 16.5598 28.2348 16.6567 28.1159 16.7583C27.997 16.8601 27.8959 16.9756 27.8127 17.105C27.7294 17.2344 27.664 17.3914 27.6165 17.5762C27.5689 17.8164 27.5511 18.0613 27.5629 18.3108C27.5748 18.5603 27.6521 18.8052 27.7948 19.0457C27.9375 19.2859 28.1694 19.5168 28.4905 19.7385C28.8116 19.9604 29.2575 20.1545 29.8283 20.3208C30.3277 20.4871 30.8807 20.6304 31.4872 20.7505C32.0936 20.8706 32.6763 21.0139 33.2352 21.1802C33.7941 21.3464 34.2935 21.5591 34.7336 21.8179C35.1735 22.0767 35.4886 22.4092 35.6789 22.8159Z" fill-rule="evenodd" fill="#FFFFFF"/>
	<defs/>
</svg>
