<svg width="24.000000" height="17.000000" viewBox="0 0 24 17" fill="none" xmlns="http://www.w3.org/2000/svg" xmlns:xlink="http://www.w3.org/1999/xlink">
	<desc>
			Created with Pixso.
	</desc>
	<path id="path" d="M5.08237 12.4893C5.40039 12.3525 5.71777 12.1885 6.03519 12.0237C5.94458 11.7771 5.80838 11.4229 5.8306 11.2043L6.91962 10.9861C7.03299 10.7937 7.14639 10.5762 7.23761 10.3303C7.32822 10.1106 7.396 9.86475 7.48721 9.56396C7.55502 9.26318 7.60062 8.93506 7.62341 8.58008C7.62341 8.33423 7.62341 8.03345 7.60062 7.70581C7.55502 7.3501 7.48721 6.99512 7.396 6.6394C7.32822 6.28369 7.19202 5.9021 7.0564 5.54639C6.9202 5.19067 6.7384 4.86304 6.5116 4.58984C6.30759 4.28906 6.05798 4.06982 5.76279 3.87915C5.4682 3.71411 5.15018 3.6333 4.78717 3.6333C4.69656 3.6333 4.62878 3.6333 4.56097 3.6333C4.49316 3.6333 4.40198 3.6333 4.33417 3.66064C4.03897 3.66064 3.76715 3.71411 3.49475 3.82397C2.99554 3.98901 2.61035 4.26147 2.31516 4.58984C2.04276 4.94556 1.81595 5.32715 1.67975 5.79199C1.54355 6.22876 1.45294 6.66772 1.40735 7.15918C1.36234 7.65088 1.36234 8.08838 1.36234 8.5249C1.36234 9.01733 1.38455 9.45483 1.45294 9.75562C1.54355 10.083 1.61194 10.3579 1.70255 10.5212C1.81595 10.7395 1.92935 10.9036 2.06555 11.0129L3.01837 11.2051C3.01837 11.3137 3.01837 11.4243 3.01837 11.5334C3.01837 11.6152 2.99554 11.7244 2.94995 11.8066C2.90497 11.9158 2.83655 11.9976 2.76877 12.0801C2.67816 12.1892 2.58694 12.2708 2.42856 12.3809C2.24734 12.5457 2.02054 12.6533 1.77094 12.7358C1.52075 12.7908 1.27115 12.8999 1.02213 12.9817C0.795319 13.0908 0.591339 13.2273 0.409515 13.3916C0.227722 13.5557 0.114319 13.8015 0.0693359 14.1296C0.000915527 14.7039 -0.0218811 15.168 0.0237122 15.5237C0.0693359 15.8787 0.114319 16.0969 0.205536 16.1519C0.273315 16.2336 0.455139 16.2886 0.771942 16.3977C1.08994 16.4802 1.45233 16.5625 1.88376 16.645C2.26956 16.6985 2.65475 16.7534 3.06335 16.8083C3.06335 16.3428 3.08557 15.7419 3.08557 15.196C3.10837 14.7861 3.10837 14.4312 3.10837 14.1846C3.33517 13.3367 4.03836 12.9548 4.62878 12.709C4.78778 12.6526 4.94678 12.5703 5.08237 12.4893ZM23.8194 15.5779C23.6598 15.0854 23.3424 14.6763 22.98 14.4031C22.2546 13.8015 21.3696 13.5823 20.598 13.0632C20.3489 12.8716 20.0994 12.626 19.9854 12.2695C19.9403 11.8052 19.9626 11.313 19.9626 10.8486C20.0994 10.7122 20.1899 10.5479 20.28 10.3831C20.4395 10.0015 20.5524 9.59082 20.5974 9.18066C20.7336 9.15332 20.847 9.04492 20.9153 8.93506C21.051 8.68921 21.0966 8.41577 21.1194 8.14185C21.1194 7.896 21.051 7.65015 20.8925 7.48535C21.0966 6.69287 21.2328 5.84644 21.1644 5.02563C21.1194 4.53418 20.9604 4.01416 20.6429 3.65991C20.439 3.44165 20.1437 3.3042 19.8719 3.25C19.7813 3.1416 19.6895 3.00415 19.5995 2.94922C19.3049 2.73096 18.9413 2.67603 18.6017 2.64844C17.9891 2.67603 17.3537 2.78589 16.8545 3.22266C16.6049 3.44165 16.4237 3.74243 16.2887 4.06909C16.1291 4.45312 16.0607 4.91724 16.0391 5.35474C16.0163 6.09204 16.1291 6.80273 16.2659 7.48535C16.1063 7.65015 16.0391 7.86914 16.0391 8.08765C16.0607 8.3335 16.0835 8.55176 16.1747 8.77075C16.2431 8.96167 16.3565 9.125 16.5377 9.18018C16.5827 9.5625 16.6967 9.9458 16.8545 10.3015C16.9457 10.5198 17.0597 10.7107 17.1947 10.8479C17.1947 11.3123 17.2175 11.8044 17.1725 12.2961C17.3321 12.3772 17.4443 12.6245 17.6033 12.6794C18.1931 12.9253 18.8513 13.2261 19.101 14.074C19.101 14.2937 19.1237 14.7839 19.1237 15.1665C19.1459 15.604 19.1459 16.123 19.1459 16.5337C20.7792 16.5337 22.3896 16.5337 24 16.5337C24.0006 16.2068 23.9328 15.8787 23.8194 15.5779ZM16.9463 12.8167C16.1525 12.4343 15.3125 11.9961 14.5415 11.6145C14.3147 11.5327 14.0879 11.4778 13.8839 11.3953C13.6115 11.1763 13.3619 10.4663 13.2023 10.1106C13.0667 10.083 12.9305 10.0557 12.7943 10.0295C12.8171 9.48218 13.0895 9.45483 13.2023 9.01807C13.3163 8.66309 13.2251 8.17139 13.3847 7.81567C13.4975 7.59668 13.7471 7.59668 13.8611 7.37842C13.9739 7.18677 14.0423 6.85913 14.0879 6.64014C14.1329 6.23022 14.2013 5.65698 14.0423 5.24707C13.9295 5.00122 13.8839 4.9729 13.8383 4.70044C13.8155 4.34473 13.9289 3.19727 13.9517 2.95068C13.9517 2.32178 13.9517 2.26758 13.8149 1.63989C13.8149 1.63989 13.6565 1.06519 13.4069 0.901123L12.9077 0.79248L12.6131 0.464355C11.3878 -0.437988 10.0721 0.190918 9.36884 0.546143C8.34821 0.929199 7.7128 2.104 8.16641 4.64624C8.2348 5.08276 7.9624 5.27368 7.9852 5.52026C8.03021 6.03931 8.03021 7.27002 8.43881 7.57056C8.48441 7.59741 8.75684 7.6792 8.75684 7.65161C8.80243 8.17139 8.84741 8.66309 8.89304 9.18213C8.98361 9.5105 9.23322 9.53784 9.30164 10.0029L8.98422 10.1113C8.84802 10.467 8.59842 11.1777 8.32602 11.396C8.09921 11.4778 7.8952 11.5327 7.6684 11.6152C6.89679 11.9968 6.03519 12.4351 5.26419 12.8174C4.56097 13.1731 3.72217 13.3098 3.47195 14.1838C3.47195 14.7854 3.42697 16.2075 3.42697 17L10.1638 17L10.6631 12.9541L10.2544 11.9158L11.2072 11.3687L12.0011 11.9158L11.5475 12.9817L12.3419 17L18.7614 17C18.7835 16.2075 18.7385 14.7854 18.7385 14.1838C18.4889 13.3091 17.6489 13.1724 16.9463 12.8167Z" fill-rule="evenodd" fill="#000000"/>
	<defs/>
</svg>
